# xmcd CD database file
#
# Track frame offsets:
#	183
#	24933
#	61918
#	74690
#	94520
#	120720
#	140685
#	158868
#	182915
#	213250
#
# Disc length: 3055 seconds
#
# Revision: 0
# Processed by: cddbd v1.5.2PL0 Copyright (c) Steve Scherf et al.
# Submitted via: CDex 1.77
#
DISCID=8c0bed0a
DTITLE=Don Michael Sampson - Crimson Winds
DYEAR=1988
DGENRE=Country
TTITLE0=Heart Pumping
TTITLE1=Lone Wolf
TTITLE2=Cherokee River
TTITLE3=Love By Spring
TTITLE4=Long Black Train
TTITLE5=Song In The Wind
TTITLE6=Fighter
TTITLE7=Forever Free
TTITLE8=Six String Healing Wheel
TTITLE9=Nightbird
EXTD=YEAR: 1988
EXTT0=
EXTT1=
EXTT2=
EXTT3=
EXTT4=
EXTT5=
EXTT6=
EXTT7=
EXTT8=
EXTT9=
PLAYORDER=
